# Blender 4.3.2
# www.blender.org
o Base
v -0.875000 0.000000 2.000000
v -1.000000 0.000000 1.875000
v 1.000000 0.000000 1.875000
v 0.875000 0.000000 2.000000
v -1.000000 0.000000 -1.875000
v -0.875000 0.000000 -2.000000
v 0.875000 0.000000 -2.000000
v 1.000000 0.000000 -1.875000
v -0.875000 0.500000 -2.000000
v -1.000000 0.500000 -1.875000
v -1.000000 0.500000 1.875000
v -0.875000 0.500000 2.000000
v 0.875000 0.500000 2.000000
v 1.000000 0.500000 1.875000
v 1.000000 0.500000 -1.875000
v 0.875000 0.500000 -2.000000
v -0.500000 0.500000 1.800000
v 0.500000 0.500000 1.800000
v -0.500000 0.500000 -1.800000
v 0.500000 0.500000 -1.800000
v -0.500000 0.457259 1.800000
v -0.500000 0.100000 0.721371
v -0.500000 0.204639 1.271521
v -0.500000 0.100000 -0.721371
v -0.500000 0.457259 -1.800000
v -0.500000 0.204639 -1.271521
v 0.500000 0.100000 0.721371
v 0.500000 0.457259 1.800000
v 0.500000 0.204639 1.271521
v 0.500000 0.457259 -1.800000
v 0.500000 0.100000 -0.721371
v 0.500000 0.204639 -1.271521
vn -0.0000 -0.0000 1.0000
vn -0.0000 -0.0000 -1.0000
vn -0.0000 -1.0000 -0.0000
vn -0.0000 1.0000 -0.0000
vn 1.0000 -0.0000 -0.0000
vn 0.7071 -0.0000 -0.7071
vn 0.7071 -0.0000 0.7071
vn -0.7071 -0.0000 0.7071
vn -0.7071 -0.0000 -0.7071
vn -1.0000 -0.0000 -0.0000
vt 0.937500 0.000000
vt 0.062500 0.000000
vt 0.062500 1.000000
vt 0.937500 1.000000
vt 0.000000 0.968750
vt 1.000000 0.031250
vt 0.750000 0.050000
vt 0.250000 0.950000
vt 1.000000 0.968750
vt 0.000000 0.031250
vt 0.375000 0.725190
vt 0.464315 0.750000
vt 0.475000 0.500000
vt 0.375000 0.024810
vt 0.401160 0.242733
vt 0.475000 0.250000
vt 0.464315 0.250000
vt 0.464315 1.000000
vt 0.475000 0.750000
vt 0.250000 0.050000
vt 0.750000 0.950000
vt 0.464315 0.500000
vt 0.401160 0.507267
vt 0.375000 0.524810
vt 0.401160 0.742733
vt 0.475000 0.000000
vt 0.464315 0.000000
vt 0.401160 0.007267
vt 0.375000 0.225190
vt 0.475000 1.000000
s 1
f 4/1/1 12/2/1 1/2/1
f 6/3/2 16/4/2 7/4/2
f 5/5/3 7/4/3 3/6/3
f 14/6/4 16/4/4 18/7/4
f 10/5/4 12/2/4 19/8/4
f 8/9/5 14/6/5 3/6/5
f 16/4/6 8/9/6 7/4/6
f 4/1/7 14/6/7 13/1/7
f 12/2/8 2/10/8 1/2/8
f 6/3/9 10/5/9 9/3/9
f 2/10/10 10/5/10 5/5/10
f 27/11/10 28/12/10 20/13/10
f 22/14/5 26/15/5 19/16/5
f 25/17/1 20/13/1 19/16/1
f 21/18/2 18/19/2 28/12/2
f 4/1/1 13/1/1 12/2/1
f 6/3/2 9/3/2 16/4/2
f 3/6/3 4/1/3 1/2/3
f 1/2/3 2/10/3 5/5/3
f 5/5/3 6/3/3 7/4/3
f 7/4/3 8/9/3 3/6/3
f 3/6/3 1/2/3 5/5/3
f 18/7/4 17/20/4 12/2/4
f 12/2/4 13/1/4 14/6/4
f 14/6/4 15/9/4 16/4/4
f 16/4/4 20/21/4 18/7/4
f 18/7/4 12/2/4 14/6/4
f 19/8/4 20/21/4 16/4/4
f 16/4/4 9/3/4 10/5/4
f 10/5/4 11/10/4 12/2/4
f 12/2/4 17/20/4 19/8/4
f 19/8/4 16/4/4 10/5/4
f 8/9/5 15/9/5 14/6/5
f 16/4/6 15/9/6 8/9/6
f 4/1/7 3/6/7 14/6/7
f 12/2/8 11/10/8 2/10/8
f 6/3/9 5/5/9 10/5/9
f 2/10/10 11/10/10 10/5/10
f 20/13/10 30/22/10 32/23/10
f 32/23/10 31/24/10 27/11/10
f 27/11/10 29/25/10 28/12/10
f 28/12/10 18/19/10 20/13/10
f 20/13/10 32/23/10 27/11/10
f 19/16/5 17/26/5 21/27/5
f 21/27/5 23/28/5 22/14/5
f 22/14/5 24/29/5 26/15/5
f 26/15/5 25/17/5 19/16/5
f 19/16/5 21/27/5 22/14/5
f 25/17/1 30/22/1 20/13/1
f 21/18/2 17/30/2 18/19/2
o Lever
v -0.500000 0.100000 -0.375000
v 0.500000 0.100000 -0.375000
v -0.500000 -0.165165 -0.265165
v 0.500000 -0.165165 -0.265165
v -0.500000 -0.275000 0.000000
v 0.500000 -0.275000 0.000000
v -0.500000 -0.165165 0.265165
v 0.500000 -0.165165 0.265165
v -0.500000 0.100000 0.375000
v 0.500000 0.100000 0.375000
v -0.500000 0.365165 0.265165
v 0.500000 0.365165 0.265165
v -0.500000 0.475000 0.000000
v 0.500000 0.475000 0.000000
v -0.500000 0.365165 -0.265165
v 0.500000 0.365165 -0.265165
v 0.000000 0.200000 -0.300000
v 0.000000 2.200000 -0.300000
v 0.212132 0.200000 -0.212132
v 0.212132 2.200000 -0.212132
v 0.300000 0.200000 0.000000
v 0.300000 2.200000 0.000000
v 0.212132 0.200000 0.212132
v 0.212132 2.200000 0.212132
v 0.000000 0.200000 0.300000
v 0.000000 2.200000 0.300000
v -0.212132 0.200000 0.212132
v -0.212132 2.200000 0.212132
v -0.300000 0.200000 0.000000
v -0.300000 2.200000 0.000000
v -0.212132 0.200000 -0.212132
v -0.212132 2.200000 -0.212132
v 0.000000 2.075000 0.000000
v 0.452255 2.420488 0.328578
v -0.172742 2.420488 0.531656
v -0.559016 2.420490 0.000000
v -0.172742 2.420488 -0.531656
v 0.452255 2.420488 -0.328578
v 0.172742 2.979512 0.531656
v -0.452255 2.979512 0.328578
v -0.452255 2.979512 -0.328578
v 0.172742 2.979512 -0.531656
v 0.559016 2.979510 0.000000
v 0.000000 3.325000 0.000000
v -0.101535 2.168341 0.312497
v 0.265827 2.168341 0.193132
v 0.164293 2.371414 0.505632
v 0.531655 2.371415 0.000000
v 0.265827 2.168341 -0.193132
v -0.328581 2.168343 0.000000
v -0.430118 2.371415 0.312498
v -0.101535 2.168341 -0.312497
v -0.430118 2.371415 -0.312498
v 0.164293 2.371414 -0.505632
v 0.594411 2.700000 0.193133
v 0.594411 2.700000 -0.193133
v 0.000000 2.700000 0.625000
v 0.367366 2.700000 0.505635
v -0.594411 2.700000 0.193133
v -0.367366 2.700000 0.505635
v -0.367366 2.700000 -0.505635
v -0.594411 2.700000 -0.193133
v 0.367366 2.700000 -0.505635
v 0.000000 2.700000 -0.625000
v 0.430118 3.028585 0.312498
v -0.164293 3.028586 0.505632
v -0.531655 3.028585 0.000000
v -0.164293 3.028586 -0.505632
v 0.430118 3.028585 -0.312498
v 0.101535 3.231659 0.312497
v 0.328581 3.231657 0.000000
v -0.265827 3.231659 0.193132
v -0.265827 3.231659 -0.193132
v 0.101535 3.231659 -0.312497
vn -0.0000 -0.0000 -1.0000
vn -0.0000 -0.7071 -0.7071
vn -0.0000 -1.0000 -0.0000
vn -0.0000 -0.7071 0.7071
vn -0.0000 -0.0000 1.0000
vn -0.0000 0.7071 0.7071
vn -0.0000 1.0000 -0.0000
vn 1.0000 -0.0000 -0.0000
vn -0.0000 0.7071 -0.7071
vn -1.0000 -0.0000 -0.0000
vn 0.7071 -0.0000 -0.7071
vn 0.7071 -0.0000 0.7071
vn -0.7071 -0.0000 0.7071
vn -0.7071 -0.0000 -0.7071
vn 0.4253 -0.8507 0.3090
vn -0.1625 -0.8507 0.5000
vn 0.7236 -0.4472 0.5257
vn 0.8506 -0.5257 -0.0000
vn -0.5257 -0.8507 -0.0000
vn -0.1625 -0.8507 -0.5000
vn 0.4253 -0.8507 -0.3090
vn 0.9511 -0.0000 0.3090
vn -0.2764 -0.4472 0.8506
vn 0.2629 -0.5257 0.8090
vn -0.8944 -0.4472 -0.0000
vn -0.6882 -0.5257 0.5000
vn -0.9511 -0.0000 0.3090
vn -0.2764 -0.4472 -0.8506
vn -0.6882 -0.5257 -0.5000
vn -0.5878 -0.0000 -0.8090
vn 0.7236 -0.4472 -0.5257
vn 0.2629 -0.5257 -0.8090
vn 0.5878 -0.0000 -0.8090
vn 0.5878 -0.0000 0.8090
vn -0.5878 -0.0000 0.8090
vn -0.9511 -0.0000 -0.3090
vn 0.9511 -0.0000 -0.3090
vn 0.2764 0.4472 0.8506
vn 0.6882 0.5257 0.5000
vn 0.1625 0.8507 0.5000
vn -0.7236 0.4472 0.5257
vn -0.2629 0.5257 0.8090
vn -0.4253 0.8507 0.3090
vn -0.7236 0.4472 -0.5257
vn -0.8506 0.5257 -0.0000
vn -0.4253 0.8507 -0.3090
vn 0.2764 0.4472 -0.8506
vn -0.2629 0.5257 -0.8090
vn 0.1625 0.8507 -0.5000
vn 0.8944 0.4472 -0.0000
vn 0.6882 0.5257 -0.5000
vn 0.5257 0.8507 -0.0000
vt 1.000000 1.000000
vt 0.875000 0.500000
vt 1.000000 0.500000
vt 0.875000 1.000000
vt 0.750000 0.500000
vt 0.750000 1.000000
vt 0.625000 0.500000
vt 0.625000 1.000000
vt 0.500000 0.500000
vt 0.500000 1.000000
vt 0.375000 0.500000
vt 0.375000 1.000000
vt 0.250000 0.500000
vt 0.010000 0.250000
vt 0.250000 0.010000
vt 0.490000 0.250000
vt 0.250000 1.000000
vt 0.125000 0.500000
vt 0.125000 1.000000
vt 0.000000 0.500000
vt 0.919706 0.080294
vt 0.580294 0.080294
vt 0.580294 0.419706
vt 0.181819 0.000000
vt 0.227273 0.078731
vt 0.136365 0.078731
vt 0.272728 0.157461
vt 0.318182 0.078731
vt 0.363637 0.157461
vt 0.909091 0.000000
vt 0.954545 0.078731
vt 0.863636 0.078731
vt 0.727273 0.000000
vt 0.772727 0.078731
vt 0.681818 0.078731
vt 0.545455 0.000000
vt 0.590909 0.078731
vt 0.500000 0.078731
vt 0.318182 0.236191
vt 0.090910 0.157461
vt 0.181819 0.157461
vt 0.136365 0.236191
vt 0.818182 0.157461
vt 0.909091 0.157461
vt 0.863636 0.236191
vt 0.636364 0.157461
vt 0.727273 0.157461
vt 0.681818 0.236191
vt 0.454546 0.157461
vt 0.545455 0.157461
vt 0.500000 0.236191
vt 0.227273 0.236191
vt 0.045455 0.236191
vt 0.772727 0.236191
vt 0.590909 0.236191
vt 0.409092 0.236191
vt 0.181819 0.314921
vt 0.272728 0.314921
vt 0.227273 0.393651
vt 0.000000 0.314921
vt 0.090910 0.314921
vt 0.045455 0.393651
vt 0.727273 0.314921
vt 0.818182 0.314921
vt 0.772727 0.393651
vt 0.545455 0.314921
vt 0.636364 0.314921
vt 0.590909 0.393651
vt 0.363637 0.314921
vt 0.454546 0.314921
vt 0.409092 0.393651
vt 0.500000 0.393651
vt 0.454546 0.472382
vt 0.681818 0.393651
vt 0.636364 0.472382
vt 0.863636 0.393651
vt 0.818182 0.472382
vt 0.909091 0.314921
vt 0.136365 0.393651
vt 0.090910 0.472382
vt 0.318182 0.393651
vt 0.272728 0.472382
vt 0.954545 0.236191
vt 1.000000 0.157461
vt 0.409092 0.078731
vt 0.363637 0.000000
vt 0.419706 0.419706
vt 0.250000 0.490000
vt 0.080294 0.419706
vt 0.080294 0.080294
vt 0.419706 0.080294
vt 0.000000 1.000000
vt 0.750000 0.490000
vt 0.919706 0.419706
vt 0.990000 0.250000
vt 0.750000 0.010000
vt 0.510000 0.250000
s 1
f 34/31/11 35/32/12 33/33/11
f 36/34/12 37/35/13 35/32/12
f 38/36/13 39/37/14 37/35/13
f 40/38/14 41/39/15 39/37/14
f 42/40/15 43/41/16 41/39/15
f 44/42/16 45/43/17 43/41/16
f 46/44/18 42/45/18 38/46/18
f 46/47/17 47/48/19 45/43/17
f 48/49/19 33/50/11 47/48/19
f 39/51/20 43/52/20 47/53/20
f 50/31/11 51/32/21 49/33/11
f 52/34/21 53/35/18 51/32/21
f 54/36/18 55/37/22 53/35/18
f 56/38/22 57/39/15 55/37/22
f 58/40/15 59/41/23 57/39/15
f 60/42/23 61/43/20 59/41/23
f 62/47/20 63/48/24 61/43/20
f 64/49/24 49/50/11 63/48/24
f 65/54/13 78/55/25 77/56/26
f 66/57/27 78/58/25 80/59/28
f 65/60/13 77/61/26 82/62/29
f 65/63/13 82/64/29 84/65/30
f 65/66/13 84/67/30 81/68/31
f 66/57/27 80/59/28 87/69/32
f 67/70/33 79/71/34 89/72/15
f 68/73/35 83/74/36 91/75/37
f 69/76/38 85/77/39 93/78/40
f 70/79/41 86/80/42 95/81/43
f 66/57/27 87/69/32 90/82/44
f 67/70/33 89/72/15 92/83/45
f 68/73/35 91/75/37 94/84/46
f 69/76/38 93/78/40 96/85/11
f 70/79/41 95/81/43 88/86/47
f 71/87/48 97/88/49 102/89/50
f 72/90/51 98/91/52 104/92/53
f 73/93/54 99/94/55 105/95/56
f 74/96/57 100/97/58 106/98/59
f 75/99/60 101/100/61 103/101/62
f 103/101/62 106/102/59 76/103/17
f 103/101/62 101/100/61 106/102/59
f 101/100/61 74/96/57 106/102/59
f 106/98/59 105/104/56 76/105/17
f 106/98/59 100/97/58 105/104/56
f 100/97/58 73/93/54 105/104/56
f 105/95/56 104/106/53 76/107/17
f 105/95/56 99/94/55 104/106/53
f 99/94/55 72/108/51 104/106/53
f 104/92/53 102/109/50 76/110/17
f 104/92/53 98/91/52 102/109/50
f 98/91/52 71/87/48 102/109/50
f 102/89/50 103/111/62 76/112/17
f 102/89/50 97/88/49 103/111/62
f 97/88/49 75/99/60 103/111/62
f 88/86/47 101/100/61 75/99/60
f 88/86/47 95/81/43 101/100/61
f 95/81/43 74/96/57 101/100/61
f 96/85/11 100/97/58 74/96/57
f 96/85/11 93/78/40 100/97/58
f 93/78/40 73/93/54 100/97/58
f 94/84/46 99/94/55 73/93/54
f 94/84/46 91/75/37 99/94/55
f 91/75/37 72/108/51 99/94/55
f 92/83/45 98/91/52 72/90/51
f 92/83/45 89/72/15 98/91/52
f 89/72/15 71/87/48 98/91/52
f 90/82/44 97/88/49 71/87/48
f 90/82/44 87/69/32 97/88/49
f 87/69/32 75/99/60 97/88/49
f 95/81/43 96/85/11 74/96/57
f 95/81/43 86/80/42 96/85/11
f 86/80/42 69/76/38 96/85/11
f 93/78/40 94/84/46 73/93/54
f 93/78/40 85/77/39 94/84/46
f 85/77/39 68/73/35 94/84/46
f 91/75/37 92/113/45 72/108/51
f 91/75/37 83/74/36 92/113/45
f 83/74/36 67/114/33 92/113/45
f 89/72/15 90/82/44 71/87/48
f 89/72/15 79/71/34 90/82/44
f 79/71/34 66/57/27 90/82/44
f 87/69/32 88/86/47 75/99/60
f 87/69/32 80/59/28 88/86/47
f 80/59/28 70/79/41 88/86/47
f 81/68/31 86/80/42 70/79/41
f 81/68/31 84/67/30 86/80/42
f 84/67/30 69/76/38 86/80/42
f 84/65/30 85/77/39 69/76/38
f 84/65/30 82/64/29 85/77/39
f 82/64/29 68/73/35 85/77/39
f 82/62/29 83/74/36 68/73/35
f 82/62/29 77/61/26 83/74/36
f 77/61/26 67/114/33 83/74/36
f 80/59/28 81/115/31 70/79/41
f 80/59/28 78/58/25 81/115/31
f 78/58/25 65/116/13 81/115/31
f 77/56/26 79/71/34 67/70/33
f 77/56/26 78/55/25 79/71/34
f 78/55/25 66/57/27 79/71/34
f 34/31/11 36/34/12 35/32/12
f 36/34/12 38/36/13 37/35/13
f 38/36/13 40/38/14 39/37/14
f 40/38/14 42/40/15 41/39/15
f 42/40/15 44/42/16 43/41/16
f 44/42/16 46/47/17 45/43/17
f 38/46/18 36/117/18 34/118/18
f 34/118/18 48/119/18 46/44/18
f 46/44/18 44/120/18 42/45/18
f 42/45/18 40/121/18 38/46/18
f 38/46/18 34/118/18 46/44/18
f 46/47/17 48/49/19 47/48/19
f 48/49/19 34/122/11 33/50/11
f 47/53/20 33/123/20 35/124/20
f 35/124/20 37/125/20 39/51/20
f 39/51/20 41/126/20 43/52/20
f 43/52/20 45/127/20 47/53/20
f 47/53/20 35/124/20 39/51/20
f 50/31/11 52/34/21 51/32/21
f 52/34/21 54/36/18 53/35/18
f 54/36/18 56/38/22 55/37/22
f 56/38/22 58/40/15 57/39/15
f 58/40/15 60/42/23 59/41/23
f 60/42/23 62/47/20 61/43/20
f 62/47/20 64/49/24 63/48/24
f 64/49/24 50/122/11 49/50/11
o Base.001
v -0.500000 0.457259 1.800000
v -0.500000 0.100000 0.721371
v -0.500000 0.204639 1.271521
v -0.500000 0.100000 -0.721371
v -0.500000 0.457259 -1.800000
v -0.500000 0.204639 -1.271521
v 0.500000 0.100000 0.721371
v 0.500000 0.457259 1.800000
v 0.500000 0.204639 1.271521
v 0.500000 0.457259 -1.800000
v 0.500000 0.100000 -0.721371
v 0.500000 0.204639 -1.271521
vn -0.0000 0.9022 -0.4313
vn -0.0000 0.9956 -0.0938
vn -0.0000 0.9502 -0.3117
vn -0.0000 0.9956 0.0938
vn -0.0000 0.9022 0.4313
vn -0.0000 0.9502 0.3117
vt 0.125000 0.725190
vt 0.375000 0.524810
vt 0.125000 0.524810
vt 0.125000 0.500000
vt 0.375000 0.250000
vt 0.464315 0.500000
vt 0.464315 0.250000
vt 0.464315 0.750000
vt 0.375000 1.000000
vt 0.464315 1.000000
vt 0.375000 0.750000
vt 0.125000 0.750000
vt 0.375000 0.725190
vt 0.375000 0.500000
s 1
f 108/128/64 117/129/66 110/130/66
f 117/129/66 112/131/68 110/130/66
f 112/132/68 116/133/67 111/134/67
f 114/135/63 109/136/65 107/137/63
f 115/138/65 108/128/64 109/139/65
f 108/128/64 113/140/64 117/129/66
f 117/129/66 118/141/68 112/131/68
f 112/132/68 118/141/68 116/133/67
f 114/135/63 115/138/65 109/136/65
f 115/138/65 113/140/64 108/128/64
