# Blender 4.3.2
# www.blender.org
o Base
v -0.850000 0.000000 2.500000
v 0.850000 0.000000 2.500000
v -0.850000 0.000000 -2.500000
v 0.850000 0.000000 -2.500000
v -0.850000 0.125000 -2.500000
v -0.850000 0.125000 2.500000
v 0.850000 0.125000 2.500000
v 0.850000 0.125000 -2.500000
v 0.850000 0.153180 -2.319031
v -0.850000 0.153180 -2.319031
v 0.850000 0.569031 -1.903180
v -0.850000 0.569031 -1.903180
v 0.850000 0.895764 -1.414190
v -0.850000 0.895764 -1.414190
v 0.850000 1.120821 -0.870854
v -0.850000 1.120821 -0.870854
v 0.850000 1.235554 -0.294051
v -0.850000 1.235554 -0.294051
v 0.850000 1.235554 0.294051
v -0.850000 1.235554 0.294051
v 0.850000 1.120821 0.870854
v -0.850000 1.120821 0.870854
v 0.850000 0.895764 1.414190
v -0.850000 0.895764 1.414190
v 0.850000 0.569031 1.903180
v -0.850000 0.569031 1.903180
v 0.850000 0.153180 2.319031
v -0.850000 0.153180 2.319031
v -0.533333 0.153180 -2.319031
v 0.533333 0.153180 -2.319031
v -0.533333 0.569031 -1.903180
v 0.533334 0.569031 -1.903180
v -0.533333 0.895764 -1.414190
v 0.533334 0.895764 -1.414190
v -0.533333 1.120821 -0.870854
v 0.533334 1.120821 -0.870854
v -0.533333 1.235554 -0.294051
v 0.533334 1.235554 -0.294051
v -0.533333 1.235554 0.294051
v 0.533334 1.235554 0.294051
v -0.533333 1.120821 0.870854
v 0.533334 1.120821 0.870854
v -0.533333 0.895764 1.414190
v 0.533334 0.895764 1.414190
v -0.533333 0.569031 1.903180
v 0.533334 0.569031 1.903180
v -0.533333 0.153180 2.319031
v 0.533334 0.153180 2.319031
v 0.850000 0.361105 2.111105
v -0.850000 0.361105 2.111105
v 0.533334 0.361105 2.111105
v -0.533333 0.361105 2.111105
v 0.850000 0.361106 -2.111105
v -0.850000 0.361105 -2.111105
v 0.533333 0.361105 -2.111105
v -0.533333 0.361105 -2.111105
v -0.533333 0.279152 -1.665282
v 0.533334 0.279152 -1.665282
v -0.533333 0.565043 -1.237417
v 0.533334 0.565043 -1.237417
v -0.533333 0.761968 -0.761997
v 0.533334 0.761968 -0.761997
v -0.533333 0.862360 -0.257295
v 0.533334 0.862360 -0.257295
v -0.533333 0.862360 0.257295
v 0.533334 0.862360 0.257295
v -0.533333 0.761968 0.761997
v 0.533334 0.761968 0.761997
v -0.533333 0.565043 1.237417
v 0.533334 0.565043 1.237417
v -0.533333 0.279152 1.665282
v 0.533334 0.279152 1.665282
v -0.850000 0.125000 -2.337860
v -0.533333 0.125000 -2.337860
v -0.850000 0.125000 2.337860
v -0.533333 0.125000 2.337860
v -0.850000 0.125000 1.705128
v -0.850000 0.125000 -1.533270
v 0.850000 0.125000 -2.337861
v 0.850000 0.125000 2.337860
v 0.850000 0.125000 2.046740
v 0.850000 0.125000 -1.705128
v 0.533334 0.125000 2.337860
v -0.533333 0.125000 -1.875000
v 0.533333 0.125000 -1.875000
v -0.533333 0.125000 1.875000
v -0.533333 0.125000 1.817286
v 0.533334 0.125000 1.817286
v 0.533334 0.125000 1.875000
v 0.533333 0.125000 -2.337860
v 0.394520 0.125000 1.875000
v 0.533333 0.125000 -1.817286
v -0.533333 0.125000 -1.817286
vn -0.0000 -1.0000 -0.0000
vn -0.0000 1.0000 -0.0000
vn -0.0000 -0.0000 -1.0000
vn -0.0000 -0.0000 1.0000
vn 1.0000 -0.0000 -0.0000
vn -1.0000 -0.0000 -0.0000
vn -0.0000 0.6344 -0.7730
vn -0.0000 0.5556 -0.8315
vn -0.0000 0.7071 -0.7071
vn -0.0000 0.7730 -0.6344
vn -0.0000 0.8819 -0.4714
vn -0.0000 0.9569 -0.2903
vn -0.0000 0.9952 -0.0980
vn -0.0000 0.9952 0.0980
vn -0.0000 0.9569 0.2903
vn -0.0000 0.8819 0.4714
vn -0.0000 0.7730 0.6344
vn -0.0000 0.7071 0.7071
vn -0.0000 0.6344 0.7730
vn -0.0000 0.5556 0.8315
vt 0.000000 1.000000
vt 1.000000 0.000000
vt 0.000000 0.000000
vt 1.000000 1.000000
vt 0.906250 1.000000
vt 0.908051 0.916667
vt 0.908051 1.000000
vt 0.890625 1.000000
vt 0.875000 0.916667
vt 0.890625 0.916667
vt 0.875000 1.000000
vt 0.843750 0.916667
vt 0.843750 1.000000
vt 0.812500 0.916667
vt 0.812500 1.000000
vt 0.781250 0.916667
vt 0.781250 1.000000
vt 0.750000 0.916667
vt 0.750000 1.000000
vt 0.718750 0.916667
vt 0.718750 1.000000
vt 0.687500 0.916667
vt 0.687500 1.000000
vt 0.656250 0.916667
vt 0.640625 1.000000
vt 0.625000 0.916667
vt 0.640625 0.916667
vt 0.623199 1.000000
vt 0.623199 0.916667
vt 0.485388 0.203178
vt 0.449553 0.383337
vt 0.387255 0.386774
vt 0.949553 0.383337
vt 0.934629 0.098479
vt 0.915327 0.101752
vt 0.625000 0.500000
vt 0.623199 0.583333
vt 0.623199 0.500000
vt 0.625000 0.583333
vt 0.640625 0.583333
vt 0.640625 0.500000
vt 0.687500 0.583333
vt 0.656250 0.500000
vt 0.687500 0.500000
vt 0.718750 0.583333
vt 0.718750 0.500000
vt 0.890625 0.583333
vt 0.750000 0.583333
vt 0.750000 0.500000
vt 0.781250 0.583333
vt 0.781250 0.500000
vt 0.812500 0.583333
vt 0.812500 0.500000
vt 0.843750 0.583333
vt 0.843750 0.500000
vt 0.875000 0.583333
vt 0.875000 0.500000
vt 0.656250 0.583333
vt 0.643103 0.583333
vt 0.640625 0.583333
vt 0.890625 0.500000
vt 0.906250 0.583333
vt 0.908051 0.500000
vt 0.908051 0.583333
vt 0.906250 0.916667
vt 0.656250 1.000000
vt 0.906250 0.500000
vt 0.640625 0.619863
vt 0.888147 0.583333
vt 0.888147 0.916667
vt 0.625000 1.000000
vt 0.412648 0.128949
vt 0.417610 0.078574
vt 0.419706 0.080294
vt 0.434629 0.098479
vt 0.449553 0.116663
vt 0.471731 0.158156
vt 0.383337 0.449553
vt 0.380946 0.450831
vt 0.490000 0.250000
vt 0.485388 0.296822
vt 0.471731 0.341844
vt 0.419706 0.419706
vt 0.401521 0.434629
vt 0.880946 0.450831
vt 0.883337 0.449553
vt 0.901521 0.434629
vt 0.919706 0.419706
vt 0.971731 0.341844
vt 0.985388 0.296822
vt 0.990000 0.250000
vt 0.985388 0.203178
vt 0.971731 0.158156
vt 0.949553 0.116663
vt 0.919706 0.080294
vt 0.917610 0.078574
vt 0.885907 0.400456
vt 0.643103 0.916667
s 1
f 3/1/1 2/2/1 1/3/1
f 7/2/2 5/1/2 6/3/2
f 3/1/3 8/4/3 4/4/3
f 2/2/4 6/3/4 1/3/4
f 4/4/5 7/2/5 2/2/5
f 1/3/6 5/1/6 3/1/6
f 10/5/7 74/6/8 73/7/8
f 54/8/9 31/9/10 56/10/9
f 12/11/10 33/12/11 31/9/10
f 14/13/11 35/14/12 33/12/11
f 16/15/12 37/16/13 35/14/12
f 18/17/13 39/18/14 37/16/13
f 20/19/14 41/20/15 39/18/14
f 22/21/15 43/22/16 41/20/15
f 24/23/16 45/24/17 43/22/16
f 50/25/18 47/26/19 52/27/18
f 47/26/19 75/28/20 76/29/20
f 22/30/6 14/31/6 78/32/6
f 13/33/5 49/34/5 81/35/5
f 27/36/19 83/37/20 80/38/20
f 48/39/19 76/29/20 83/37/20
f 51/40/18 27/36/19 49/41/18
f 47/26/19 51/40/18 52/27/18
f 44/42/16 25/43/17 23/44/16
f 35/14/5 59/12/5 33/12/5
f 42/45/15 23/44/16 21/46/15
f 55/47/18 84/10/18 85/47/18
f 40/48/14 21/46/15 19/49/14
f 43/22/5 67/20/5 41/20/5
f 38/50/13 19/49/14 17/51/13
f 71/24/5 52/27/5 86/27/5
f 36/52/12 17/51/13 15/53/12
f 36/52/6 60/54/6 62/52/6
f 34/54/11 15/53/12 13/55/11
f 42/45/6 70/42/6 44/42/6
f 32/56/10 13/55/11 11/57/10
f 46/58/6 88/59/6 89/60/6
f 53/61/9 32/56/10 11/57/10
f 37/16/5 61/14/5 35/14/5
f 30/62/7 79/63/8 90/64/8
f 29/65/7 90/64/8 74/6/8
f 43/22/5 71/24/5 69/22/5
f 46/58/17 49/41/18 25/43/17
f 26/66/17 52/27/18 45/24/17
f 56/10/9 30/62/7 29/65/7
f 9/67/7 55/47/9 53/61/9
f 29/65/7 54/8/9 56/10/9
f 52/27/9 89/60/9 91/68/9
f 42/45/6 66/48/6 68/45/6
f 32/56/6 60/54/6 34/54/6
f 41/20/5 65/18/5 39/18/5
f 33/12/5 57/9/5 31/9/5
f 38/50/6 66/48/6 40/48/6
f 32/56/6 85/47/6 92/69/6
f 37/16/5 65/18/5 63/16/5
f 44/42/6 72/58/6 46/58/6
f 56/10/5 57/9/5 93/70/5
f 36/52/6 64/50/6 38/50/6
f 3/1/1 4/4/1 2/2/1
f 7/2/2 8/4/2 5/1/2
f 3/1/3 5/1/3 8/4/3
f 2/2/4 7/2/4 6/3/4
f 4/4/5 8/4/5 7/2/5
f 1/3/6 6/3/6 5/1/6
f 10/5/7 29/65/7 74/6/8
f 54/8/9 12/11/10 31/9/10
f 12/11/10 14/13/11 33/12/11
f 14/13/11 16/15/12 35/14/12
f 16/15/12 18/17/13 37/16/13
f 18/17/13 20/19/14 39/18/14
f 20/19/14 22/21/15 41/20/15
f 22/21/15 24/23/16 43/22/16
f 24/23/16 26/66/17 45/24/17
f 50/25/18 28/71/19 47/26/19
f 47/26/19 28/71/19 75/28/20
f 77/72/6 75/73/6 28/74/6
f 50/75/6 26/76/6 24/77/6
f 77/72/6 28/74/6 50/75/6
f 10/78/6 73/79/6 78/32/6
f 78/32/6 77/72/6 50/75/6
f 50/75/6 24/77/6 22/30/6
f 22/30/6 20/80/6 18/81/6
f 18/81/6 16/82/6 14/31/6
f 14/31/6 12/83/6 54/84/6
f 54/84/6 10/78/6 78/32/6
f 78/32/6 50/75/6 22/30/6
f 22/30/6 18/81/6 14/31/6
f 14/31/6 54/84/6 78/32/6
f 79/85/5 9/86/5 53/87/5
f 53/87/5 11/88/5 13/33/5
f 13/33/5 15/89/5 17/90/5
f 17/90/5 19/91/5 21/92/5
f 21/92/5 23/93/5 25/94/5
f 49/34/5 27/95/5 80/96/5
f 21/92/5 25/94/5 49/34/5
f 13/33/5 17/90/5 21/92/5
f 79/85/5 53/87/5 13/33/5
f 82/97/5 79/85/5 13/33/5
f 13/33/5 21/92/5 49/34/5
f 49/34/5 80/96/5 81/35/5
f 81/35/5 82/97/5 13/33/5
f 27/36/19 48/39/19 83/37/20
f 48/39/19 47/26/19 76/29/20
f 51/40/18 48/39/19 27/36/19
f 47/26/19 48/39/19 51/40/18
f 44/42/16 46/58/17 25/43/17
f 35/14/5 61/14/5 59/12/5
f 42/45/15 44/42/16 23/44/16
f 55/47/18 56/10/18 84/10/18
f 40/48/14 42/45/15 21/46/15
f 43/22/5 69/22/5 67/20/5
f 38/50/13 40/48/14 19/49/14
f 86/27/5 87/98/5 71/24/5
f 71/24/5 45/24/5 52/27/5
f 36/52/12 38/50/13 17/51/13
f 36/52/6 34/54/6 60/54/6
f 34/54/11 36/52/12 15/53/12
f 42/45/6 68/45/6 70/42/6
f 32/56/10 34/54/11 13/55/11
f 89/60/6 51/40/6 46/58/6
f 46/58/6 72/58/6 88/59/6
f 53/61/9 55/47/9 32/56/10
f 37/16/5 63/16/5 61/14/5
f 30/62/7 9/67/7 79/63/8
f 29/65/7 30/62/7 90/64/8
f 43/22/5 45/24/5 71/24/5
f 46/58/17 51/40/18 49/41/18
f 26/66/17 50/25/18 52/27/18
f 56/10/9 55/47/9 30/62/7
f 9/67/7 30/62/7 55/47/9
f 29/65/7 10/5/7 54/8/9
f 91/68/9 86/27/9 52/27/9
f 52/27/9 51/40/9 89/60/9
f 42/45/6 40/48/6 66/48/6
f 32/56/6 58/56/6 60/54/6
f 41/20/5 67/20/5 65/18/5
f 33/12/5 59/12/5 57/9/5
f 38/50/6 64/50/6 66/48/6
f 92/69/6 58/56/6 32/56/6
f 32/56/6 55/47/6 85/47/6
f 37/16/5 39/18/5 65/18/5
f 44/42/6 70/42/6 72/58/6
f 93/70/5 84/10/5 56/10/5
f 56/10/5 31/9/5 57/9/5
f 36/52/6 62/52/6 64/50/6
o Meter
v 0.550000 -1.467711 -2.866132
v -0.550000 -1.467711 -2.866132
v 0.550000 -0.913980 -2.755988
v -0.550000 -0.913980 -2.755988
v 0.550000 -0.392377 -2.539933
v -0.550000 -0.392377 -2.539933
v 0.550000 0.077053 -2.226270
v -0.550000 0.077053 -2.226270
v 0.550000 0.476270 -1.827052
v -0.550000 0.476270 -1.827052
v 0.550000 0.789933 -1.357623
v -0.550000 0.789933 -1.357623
v 0.550000 1.005988 -0.836020
v -0.550000 1.005988 -0.836020
v 0.550000 1.116132 -0.282289
v -0.550000 1.116132 -0.282289
v 0.550000 1.116132 0.282289
v -0.550000 1.116132 0.282289
v 0.550000 1.005988 0.836020
v -0.550000 1.005988 0.836020
v 0.550000 0.789933 1.357623
v -0.550000 0.789933 1.357623
v 0.550000 0.476270 1.827053
v -0.550000 0.476270 1.827053
v 0.550000 0.077052 2.226270
v -0.550000 0.077052 2.226270
v 0.550000 -0.392377 2.539933
v -0.550000 -0.392377 2.539933
v 0.550000 -0.913980 2.755988
v -0.550000 -0.913980 2.755988
v 0.550000 -1.467711 2.866132
v -0.550000 -1.467710 2.866132
v 0.550000 -2.032290 2.866132
v -0.550000 -2.032289 2.866132
v 0.550000 -2.586020 2.755988
v -0.550000 -2.586020 2.755988
v 0.550000 -3.107623 2.539933
v -0.550000 -3.107623 2.539933
v 0.550000 -3.577053 2.226270
v -0.550000 -3.577053 2.226270
v 0.550000 -3.976270 1.827052
v -0.550000 -3.976270 1.827052
v 0.550000 -4.289933 1.357623
v -0.550000 -4.289933 1.357623
v 0.550000 -4.505988 0.836020
v -0.550000 -4.505988 0.836020
v 0.550000 -4.616132 0.282289
v -0.550000 -4.616132 0.282289
v 0.550000 -4.616132 -0.282289
v -0.550000 -4.616132 -0.282289
v 0.550000 -4.505988 -0.836020
v -0.550000 -4.505988 -0.836020
v 0.550000 -4.289933 -1.357623
v -0.550000 -4.289933 -1.357623
v 0.550000 -3.976270 -1.827053
v -0.550000 -3.976270 -1.827053
v 0.550000 -3.577053 -2.226270
v -0.550000 -3.577053 -2.226270
v 0.550000 -3.107623 -2.539933
v -0.550000 -3.107623 -2.539933
v 0.550000 -2.586020 -2.755988
v -0.550000 -2.586020 -2.755988
v 0.550000 -2.032290 -2.866132
v -0.550000 -2.032289 -2.866132
vn -0.0000 0.0980 -0.9952
vn -0.0000 0.2903 -0.9569
vn -0.0000 0.4714 -0.8819
vn -0.0000 0.6344 -0.7730
vn -0.0000 0.7730 -0.6344
vn -0.0000 0.8819 -0.4714
vn -0.0000 0.9569 -0.2903
vn -0.0000 0.9952 -0.0980
vn -0.0000 0.9952 0.0980
vn -0.0000 0.9569 0.2903
vn -0.0000 0.8819 0.4714
vn -0.0000 0.7730 0.6344
vn -0.0000 0.6344 0.7730
vn -0.0000 0.4714 0.8819
vn -0.0000 0.2903 0.9569
vn -0.0000 0.0980 0.9952
vn -0.0000 -0.0980 0.9952
vn -0.0000 -0.2903 0.9569
vn -0.0000 -0.4714 0.8819
vn -0.0000 -0.6344 0.7730
vn -0.0000 -0.7730 0.6344
vn -0.0000 -0.8819 0.4714
vn -0.0000 -0.9569 0.2903
vn -0.0000 -0.9952 0.0980
vn -0.0000 -0.9952 -0.0980
vn -0.0000 -0.9569 -0.2903
vn -0.0000 -0.8819 -0.4714
vn -0.0000 -0.7730 -0.6344
vn -0.0000 -0.6344 -0.7730
vn -0.0000 -0.4714 -0.8819
vn -0.0000 -0.2903 -0.9569
vn -1.0000 -0.0000 -0.0000
vn -0.0000 -0.0980 -0.9952
vn 1.0000 -0.0000 -0.0000
vt 1.000000 1.000000
vt 0.968750 0.500000
vt 1.000000 0.500000
vt 0.968750 1.000000
vt 0.937500 0.500000
vt 0.937500 1.000000
vt 0.906250 0.500000
vt 0.875000 1.000000
vt 0.875000 0.500000
vt 0.843750 0.500000
vt 0.843750 1.000000
vt 0.812500 0.500000
vt 0.812500 1.000000
vt 0.781250 0.500000
vt 0.781250 1.000000
vt 0.750000 0.500000
vt 0.750000 1.000000
vt 0.718750 0.500000
vt 0.718750 1.000000
vt 0.687500 0.500000
vt 0.687500 1.000000
vt 0.656250 0.500000
vt 0.656250 1.000000
vt 0.625000 0.500000
vt 0.625000 1.000000
vt 0.593750 0.500000
vt 0.593750 1.000000
vt 0.562500 0.500000
vt 0.531250 1.000000
vt 0.531250 0.500000
vt 0.500000 0.500000
vt 0.500000 1.000000
vt 0.468750 0.500000
vt 0.437500 1.000000
vt 0.437500 0.500000
vt 0.406250 0.500000
vt 0.406250 1.000000
vt 0.375000 0.500000
vt 0.375000 1.000000
vt 0.343750 0.500000
vt 0.343750 1.000000
vt 0.312500 0.500000
vt 0.312500 1.000000
vt 0.281250 0.500000
vt 0.281250 1.000000
vt 0.250000 0.500000
vt 0.250000 1.000000
vt 0.218750 0.500000
vt 0.218750 1.000000
vt 0.187500 0.500000
vt 0.187500 1.000000
vt 0.156250 0.500000
vt 0.156250 1.000000
vt 0.125000 0.500000
vt 0.093750 1.000000
vt 0.093750 0.500000
vt 0.062500 1.000000
vt 0.062500 0.500000
vt 0.158156 0.028269
vt 0.471731 0.158156
vt 0.341844 0.471731
vt 0.031250 0.500000
vt 0.031250 1.000000
vt 0.000000 0.500000
vt 0.796822 0.014612
vt 0.514612 0.203178
vt 0.703178 0.485388
vt 0.906250 1.000000
vt 0.562500 1.000000
vt 0.468750 1.000000
vt 0.125000 1.000000
vt 0.296822 0.485388
vt 0.250000 0.490000
vt 0.203178 0.485388
vt 0.158156 0.471731
vt 0.116663 0.449553
vt 0.080294 0.419706
vt 0.050447 0.383337
vt 0.028269 0.341844
vt 0.014612 0.296822
vt 0.010000 0.250000
vt 0.014612 0.203178
vt 0.028269 0.158156
vt 0.050447 0.116663
vt 0.080294 0.080294
vt 0.116663 0.050447
vt 0.203178 0.014612
vt 0.250000 0.010000
vt 0.296822 0.014612
vt 0.341844 0.028269
vt 0.383337 0.050447
vt 0.419706 0.080294
vt 0.449553 0.116663
vt 0.485388 0.203178
vt 0.490000 0.250000
vt 0.485388 0.296822
vt 0.471731 0.341844
vt 0.449553 0.383337
vt 0.419706 0.419706
vt 0.383337 0.449553
vt 0.000000 1.000000
vt 0.750000 0.490000
vt 0.796822 0.485388
vt 0.841844 0.471731
vt 0.883337 0.449553
vt 0.919706 0.419706
vt 0.949553 0.383337
vt 0.971731 0.341844
vt 0.985388 0.296822
vt 0.990000 0.250000
vt 0.985388 0.203178
vt 0.971731 0.158156
vt 0.949553 0.116663
vt 0.919706 0.080294
vt 0.883337 0.050447
vt 0.841844 0.028269
vt 0.750000 0.010000
vt 0.703178 0.014612
vt 0.658156 0.028269
vt 0.616663 0.050447
vt 0.580294 0.080294
vt 0.550447 0.116663
vt 0.528269 0.158156
vt 0.510000 0.250000
vt 0.514612 0.296822
vt 0.528269 0.341844
vt 0.550447 0.383337
vt 0.580294 0.419706
vt 0.616663 0.449553
vt 0.658156 0.471731
s 1
f 95/99/21 96/100/22 94/101/21
f 97/102/22 98/103/23 96/100/22
f 99/104/23 100/105/24 98/103/23
f 100/105/24 103/106/25 102/107/25
f 103/106/25 104/108/26 102/107/25
f 105/109/26 106/110/27 104/108/26
f 107/111/27 108/112/28 106/110/27
f 109/113/28 110/114/29 108/112/28
f 111/115/29 112/116/30 110/114/29
f 113/117/30 114/118/31 112/116/30
f 115/119/31 116/120/32 114/118/31
f 117/121/32 118/122/33 116/120/32
f 119/123/33 120/124/34 118/122/33
f 121/125/34 122/126/35 120/124/34
f 122/126/35 125/127/36 124/128/36
f 125/127/36 126/129/37 124/128/36
f 127/130/37 128/131/38 126/129/37
f 128/131/38 131/132/39 130/133/39
f 131/132/39 132/134/40 130/133/39
f 133/135/40 134/136/41 132/134/40
f 135/137/41 136/138/42 134/136/41
f 137/139/42 138/140/43 136/138/42
f 139/141/43 140/142/44 138/140/43
f 141/143/44 142/144/45 140/142/44
f 143/145/45 144/146/46 142/144/45
f 145/147/46 146/148/47 144/146/46
f 147/149/47 148/150/48 146/148/47
f 149/151/48 150/152/49 148/150/48
f 150/152/49 153/153/50 152/154/50
f 152/154/50 155/155/51 154/156/51
f 131/157/52 115/158/52 99/159/52
f 155/155/51 156/160/53 154/156/51
f 157/161/53 94/162/21 156/160/53
f 124/163/54 140/164/54 156/165/54
f 95/99/21 97/102/22 96/100/22
f 97/102/22 99/104/23 98/103/23
f 99/104/23 101/166/24 100/105/24
f 100/105/24 101/166/24 103/106/25
f 103/106/25 105/109/26 104/108/26
f 105/109/26 107/111/27 106/110/27
f 107/111/27 109/113/28 108/112/28
f 109/113/28 111/115/29 110/114/29
f 111/115/29 113/117/30 112/116/30
f 113/117/30 115/119/31 114/118/31
f 115/119/31 117/121/32 116/120/32
f 117/121/32 119/123/33 118/122/33
f 119/123/33 121/125/34 120/124/34
f 121/125/34 123/167/35 122/126/35
f 122/126/35 123/167/35 125/127/36
f 125/127/36 127/130/37 126/129/37
f 127/130/37 129/168/38 128/131/38
f 128/131/38 129/168/38 131/132/39
f 131/132/39 133/135/40 132/134/40
f 133/135/40 135/137/41 134/136/41
f 135/137/41 137/139/42 136/138/42
f 137/139/42 139/141/43 138/140/43
f 139/141/43 141/143/44 140/142/44
f 141/143/44 143/145/45 142/144/45
f 143/145/45 145/147/46 144/146/46
f 145/147/46 147/149/47 146/148/47
f 147/149/47 149/151/48 148/150/48
f 149/151/48 151/169/49 150/152/49
f 150/152/49 151/169/49 153/153/50
f 152/154/50 153/153/50 155/155/51
f 99/159/52 97/170/52 95/171/52
f 95/171/52 157/172/52 155/173/52
f 155/173/52 153/174/52 151/175/52
f 151/175/52 149/176/52 147/177/52
f 147/177/52 145/178/52 143/179/52
f 143/179/52 141/180/52 139/181/52
f 139/181/52 137/182/52 135/183/52
f 135/183/52 133/184/52 131/157/52
f 131/157/52 129/185/52 127/186/52
f 127/186/52 125/187/52 123/188/52
f 123/188/52 121/189/52 119/190/52
f 119/190/52 117/191/52 115/158/52
f 115/158/52 113/192/52 111/193/52
f 111/193/52 109/194/52 107/195/52
f 107/195/52 105/196/52 103/197/52
f 103/197/52 101/198/52 99/159/52
f 99/159/52 95/171/52 155/173/52
f 155/173/52 151/175/52 147/177/52
f 147/177/52 143/179/52 139/181/52
f 139/181/52 135/183/52 131/157/52
f 131/157/52 127/186/52 123/188/52
f 123/188/52 119/190/52 115/158/52
f 115/158/52 111/193/52 107/195/52
f 107/195/52 103/197/52 99/159/52
f 99/159/52 155/173/52 147/177/52
f 147/177/52 139/181/52 131/157/52
f 131/157/52 123/188/52 115/158/52
f 115/158/52 107/195/52 99/159/52
f 99/159/52 147/177/52 131/157/52
f 155/155/51 157/161/53 156/160/53
f 157/161/53 95/199/21 94/162/21
f 156/165/54 94/200/54 96/201/54
f 96/201/54 98/202/54 100/203/54
f 100/203/54 102/204/54 104/205/54
f 104/205/54 106/206/54 108/207/54
f 108/207/54 110/208/54 112/209/54
f 112/209/54 114/210/54 116/211/54
f 116/211/54 118/212/54 120/213/54
f 120/213/54 122/214/54 124/163/54
f 124/163/54 126/215/54 128/216/54
f 128/216/54 130/217/54 132/218/54
f 132/218/54 134/219/54 136/220/54
f 136/220/54 138/221/54 140/164/54
f 140/164/54 142/222/54 144/223/54
f 144/223/54 146/224/54 148/225/54
f 148/225/54 150/226/54 152/227/54
f 152/227/54 154/228/54 156/165/54
f 156/165/54 96/201/54 100/203/54
f 100/203/54 104/205/54 108/207/54
f 108/207/54 112/209/54 116/211/54
f 116/211/54 120/213/54 124/163/54
f 124/163/54 128/216/54 132/218/54
f 132/218/54 136/220/54 140/164/54
f 140/164/54 144/223/54 148/225/54
f 148/225/54 152/227/54 156/165/54
f 156/165/54 100/203/54 108/207/54
f 108/207/54 116/211/54 124/163/54
f 124/163/54 132/218/54 140/164/54
f 140/164/54 148/225/54 156/165/54
f 156/165/54 108/207/54 124/163/54
o Needle
v 0.584529 1.237000 0.000000
v 0.795471 1.237000 0.105471
v 0.795471 1.237000 -0.105471
vn -0.0000 1.0000 -0.0000
vt 0.000000 0.000000
vt 1.000000 0.000000
vt 1.000000 1.000000
s 0
f 158/229/55 159/230/55 160/231/55
