# Blender 4.3.2
# www.blender.org
o Border
v -0.500000 -0.062500 1.375000
v -0.500000 0.062500 1.375000
v -0.500000 -0.062500 0.750000
v -0.500000 0.062500 0.750000
v 0.500000 -0.062500 1.375000
v 0.500000 0.062500 1.375000
v 0.500000 -0.062500 0.750000
v 0.500000 0.062500 0.750000
v -0.500000 -0.062500 -1.375000
v -0.500000 0.062500 -1.375000
v -0.500000 -0.062500 -0.750000
v -0.500000 0.062500 -0.750000
v 0.500000 -0.062500 -1.375000
v 0.500000 0.062500 -1.375000
v 0.500000 -0.062500 -0.750000
v 0.500000 0.062500 -0.750000
vn -1.0000 -0.0000 -0.0000
vn -0.0000 -0.0000 -1.0000
vn 1.0000 -0.0000 -0.0000
vn -0.0000 -0.0000 1.0000
vn -0.0000 -1.0000 -0.0000
vn -0.0000 1.0000 -0.0000
vt 0.625000 0.000000
vt 0.375000 0.250000
vt 0.375000 0.000000
vt 0.625000 0.250000
vt 0.375000 0.500000
vt 0.625000 0.500000
vt 0.375000 0.750000
vt 0.625000 0.750000
vt 0.375000 1.000000
vt 0.125000 0.750000
vt 0.125000 0.500000
vt 0.875000 0.500000
vt 0.625000 1.000000
vt 0.875000 0.750000
s 0
f 2/1/1 3/2/1 1/3/1
f 4/4/2 7/5/2 3/2/2
f 8/6/3 5/7/3 7/5/3
f 6/8/4 1/9/4 5/7/4
f 7/5/5 1/10/5 3/11/5
f 4/12/6 6/8/6 8/6/6
f 11/2/1 10/1/1 9/3/1
f 15/5/4 12/4/4 11/2/4
f 13/7/3 16/6/3 15/5/3
f 9/9/2 14/8/2 13/7/2
f 9/10/5 15/5/5 11/11/5
f 14/8/6 12/12/6 16/6/6
f 2/1/1 4/4/1 3/2/1
f 4/4/2 8/6/2 7/5/2
f 8/6/3 6/8/3 5/7/3
f 6/8/4 2/13/4 1/9/4
f 7/5/5 5/7/5 1/10/5
f 4/12/6 2/14/6 6/8/6
f 11/2/1 12/4/1 10/1/1
f 15/5/4 16/6/4 12/4/4
f 13/7/3 14/8/3 16/6/3
f 9/9/2 10/13/2 14/8/2
f 9/10/5 13/7/5 15/5/5
f 14/8/6 10/14/6 12/12/6
o BorderLeft
v -0.500000 -0.062500 1.375000
v -0.500000 0.062500 1.375000
v -0.500000 -0.062500 -1.375000
v -0.500000 0.062500 -1.375000
v -0.812500 -0.062500 1.375000
v -0.875000 -0.062500 1.312500
v -0.856694 -0.062500 1.356694
v -0.875000 0.062500 1.312500
v -0.812500 0.062500 1.375000
v -0.856694 0.062500 1.356694
v -0.875000 -0.062500 -1.312500
v -0.812500 -0.062500 -1.375000
v -0.856694 -0.062500 -1.356694
v -0.812500 0.062500 -1.375000
v -0.875000 0.062500 -1.312500
v -0.856694 0.062500 -1.356694
vn -0.0000 -0.0000 1.0000
vn 1.0000 -0.0000 -0.0000
vn -0.0000 1.0000 -0.0000
vn -1.0000 -0.0000 -0.0000
vn -0.0000 -0.0000 -1.0000
vn -0.3827 -0.0000 0.9239
vn -0.9239 -0.0000 0.3827
vn -0.3827 -0.0000 -0.9239
vn -0.9239 -0.0000 -0.3827
vn -0.0000 -1.0000 -0.0000
vt 0.625000 0.750000
vt 0.375000 0.950000
vt 0.375000 0.750000
vt 0.625000 0.500000
vt 0.375000 0.500000
vt 0.875000 0.505682
vt 0.860355 0.748336
vt 0.625000 0.005682
vt 0.375000 0.244318
vt 0.375000 0.005682
vt 0.625000 0.300000
vt 0.375000 0.300000
vt 0.625000 0.950000
vt 0.375000 1.000000
vt 0.625000 0.000000
vt 0.375000 0.000000
vt 0.625000 0.250000
vt 0.375000 0.250000
vt 0.625000 0.244318
vt 0.175000 0.750000
vt 0.125000 0.744318
vt 0.825000 0.500000
vt 0.860355 0.501664
vt 0.875000 0.744318
vt 0.825000 0.750000
vt 0.625000 1.000000
vt 0.125000 0.505682
vt 0.139645 0.501664
vt 0.175000 0.500000
vt 0.139645 0.748336
s 0
f 18/15/7 21/16/7 17/17/7
f 20/18/8 17/17/8 19/19/8
f 31/20/9 26/21/9 18/15/9
f 24/22/10 27/23/10 22/24/10
f 30/25/11 19/19/11 28/26/11
f 25/27/12 23/28/12 21/16/12
f 26/29/13 22/24/13 23/30/13
f 28/26/14 32/31/14 30/25/14
f 29/32/15 31/33/15 32/31/15
f 19/19/16 21/34/16 22/35/16
f 18/15/7 25/27/7 21/16/7
f 20/18/8 18/15/8 17/17/8
f 18/15/9 20/18/9 30/36/9
f 30/36/9 32/37/9 31/20/9
f 31/20/9 24/38/9 26/21/9
f 26/21/9 25/39/9 18/15/9
f 18/15/9 30/36/9 31/20/9
f 24/22/10 31/33/10 27/23/10
f 30/25/11 20/18/11 19/19/11
f 25/27/12 26/40/12 23/28/12
f 26/29/13 24/22/13 22/24/13
f 28/26/14 29/32/14 32/31/14
f 29/32/15 27/23/15 31/33/15
f 22/35/16 27/41/16 29/42/16
f 29/42/16 28/43/16 19/19/16
f 19/19/16 17/17/16 21/34/16
f 21/34/16 23/44/16 22/35/16
f 22/35/16 29/42/16 19/19/16
o InsideLeft
v -0.500000 -1.062500 0.750000
v -0.500000 -0.062500 0.750000
v -0.500000 -1.062500 -0.750000
v -0.500000 -0.062500 -0.750000
vn 1.0000 -0.0000 -0.0000
vt 0.625000 0.500000
vt 0.375000 0.750000
vt 0.375000 0.500000
vt 0.625000 0.750000
s 0
f 36/45/17 33/46/17 35/47/17
f 36/45/17 34/48/17 33/46/17
o Inside
v 0.000000 -1.031250 0.750000
v 0.000000 -1.031250 0.500000
v 0.331456 -0.893956 0.750000
v 0.331456 -0.893956 0.500000
v 0.468750 -0.562500 0.750000
v 0.468750 -0.562500 0.500000
v 0.331456 -0.231044 0.750000
v 0.331456 -0.231044 0.500000
v 0.000000 -0.093750 0.750000
v 0.000000 -0.093750 0.500000
v -0.331456 -0.231044 0.750000
v -0.331456 -0.231044 0.500000
v -0.468750 -0.562500 0.750000
v -0.468750 -0.562500 0.500000
v -0.331456 -0.893956 0.750000
v -0.331456 -0.893956 0.500000
v 0.000000 -1.031250 -0.750000
v 0.000000 -1.031250 -0.500000
v 0.331456 -0.893956 -0.750000
v 0.331456 -0.893956 -0.500000
v 0.468750 -0.562500 -0.750000
v 0.468750 -0.562500 -0.500000
v 0.331456 -0.231044 -0.750000
v 0.331456 -0.231044 -0.500000
v 0.000000 -0.093750 -0.750000
v 0.000000 -0.093750 -0.500000
v -0.331456 -0.231044 -0.750000
v -0.331456 -0.231044 -0.500000
v -0.468750 -0.562500 -0.750000
v -0.468750 -0.562500 -0.500000
v -0.331456 -0.893956 -0.750000
v -0.331456 -0.893956 -0.500000
v -0.500000 -1.062500 0.750000
v -0.500000 -0.062500 0.750000
v 0.500000 -1.062500 0.750000
v 0.500000 -0.062500 0.750000
v -0.500000 -1.062500 -0.750000
v -0.500000 -0.062500 -0.750000
v 0.500000 -1.062500 -0.750000
v 0.500000 -0.062500 -0.750000
v -0.500000 -1.062500 0.750000
v 0.500000 -1.062500 0.750000
v -0.500000 -1.062500 -0.750000
v 0.500000 -1.062500 -0.750000
vn -0.0000 -1.0000 -0.0000
vn 0.7071 -0.7071 -0.0000
vn 1.0000 -0.0000 -0.0000
vn 0.7071 0.7071 -0.0000
vn -0.0000 1.0000 -0.0000
vn -0.7071 0.7071 -0.0000
vn -1.0000 -0.0000 -0.0000
vn -0.0000 -0.0000 -1.0000
vn -0.7071 -0.7071 -0.0000
vn -0.0000 -0.0000 1.0000
vt 1.000000 1.000000
vt 0.875000 0.500000
vt 1.000000 0.500000
vt 0.875000 1.000000
vt 0.750000 0.500000
vt 0.750000 1.000000
vt 0.625000 0.500000
vt 0.625000 1.000000
vt 0.500000 0.500000
vt 0.500000 1.000000
vt 0.375000 0.500000
vt 0.375000 1.000000
vt 0.250000 0.500000
vt 0.010000 0.250000
vt 0.250000 0.010000
vt 0.490000 0.250000
vt 0.125000 1.000000
vt 0.125000 0.500000
vt 0.000000 1.000000
vt 0.000000 0.500000
vt 0.250000 0.490000
vt 0.250000 1.000000
vt 0.625000 0.250000
vt 0.375000 0.250000
vt 1.000000 0.000000
vt 0.000000 0.000000
vt 0.419706 0.419706
vt 0.080294 0.419706
vt 0.080294 0.080294
vt 0.419706 0.080294
s 1
f 38/49/18 39/50/19 37/51/18
f 40/52/19 41/53/20 39/50/19
f 42/54/20 43/55/21 41/53/20
f 44/56/21 45/57/22 43/55/21
f 46/58/22 47/59/23 45/57/22
f 48/60/23 49/61/24 47/59/23
f 50/62/25 46/63/25 42/64/25
f 49/61/24 52/65/26 51/66/26
f 51/66/26 38/67/18 37/68/18
f 55/50/19 54/49/18 53/51/18
f 57/53/20 56/52/19 55/50/19
f 59/55/21 58/54/20 57/53/20
f 61/57/22 60/56/21 59/55/21
f 63/59/23 62/58/22 61/57/22
f 65/61/24 64/60/23 63/59/23
f 62/63/27 66/62/27 54/69/27
f 65/61/24 68/65/26 66/70/24
f 67/66/26 54/67/18 68/65/26
f 70/71/25 71/59/25 69/72/25
f 75/59/27 74/71/27 73/72/27
f 78/73/22 79/67/22 77/74/22
f 38/49/18 40/52/19 39/50/19
f 40/52/19 42/54/20 41/53/20
f 42/54/20 44/56/21 43/55/21
f 44/56/21 46/58/22 45/57/22
f 46/58/22 48/60/23 47/59/23
f 48/60/23 50/70/24 49/61/24
f 42/64/25 40/75/25 38/69/25
f 38/69/25 52/76/25 50/62/25
f 50/62/25 48/77/25 46/63/25
f 46/63/25 44/78/25 42/64/25
f 42/64/25 38/69/25 50/62/25
f 49/61/24 50/70/24 52/65/26
f 51/66/26 52/65/26 38/67/18
f 55/50/19 56/52/19 54/49/18
f 57/53/20 58/54/20 56/52/19
f 59/55/21 60/56/21 58/54/20
f 61/57/22 62/58/22 60/56/21
f 63/59/23 64/60/23 62/58/22
f 65/61/24 66/70/24 64/60/23
f 54/69/27 56/75/27 58/64/27
f 58/64/27 60/78/27 62/63/27
f 62/63/27 64/77/27 66/62/27
f 66/62/27 68/76/27 54/69/27
f 54/69/27 58/64/27 62/63/27
f 65/61/24 67/66/26 68/65/26
f 67/66/26 53/68/18 54/67/18
f 70/71/25 72/55/25 71/59/25
f 75/59/27 76/55/27 74/71/27
f 78/73/22 80/49/22 79/67/22
o Tube
v 0.000000 -0.972656 0.500000
v 0.000000 -0.972656 -0.500000
v 0.290024 -0.852524 0.500000
v 0.290024 -0.852524 -0.500000
v 0.410156 -0.562500 0.500000
v 0.410156 -0.562500 -0.500000
v 0.290024 -0.272476 0.500000
v 0.290024 -0.272476 -0.500000
v 0.000000 -0.152344 0.500000
v 0.000000 -0.152344 -0.500000
v -0.290024 -0.272476 0.500000
v -0.290024 -0.272476 -0.500000
v -0.410156 -0.562500 0.500000
v -0.410156 -0.562500 -0.500000
v -0.290024 -0.852524 0.500000
v -0.290024 -0.852524 -0.500000
vn -0.0000 -1.0000 -0.0000
vn 0.7071 -0.7071 -0.0000
vn 1.0000 -0.0000 -0.0000
vn 0.7071 0.7071 -0.0000
vn -0.0000 1.0000 -0.0000
vn -0.7071 0.7071 -0.0000
vn -1.0000 -0.0000 -0.0000
vn -0.7071 -0.7071 -0.0000
vt 1.000000 1.000000
vt 0.875000 0.500000
vt 1.000000 0.500000
vt 0.875000 1.000000
vt 0.750000 0.500000
vt 0.750000 1.000000
vt 0.625000 0.500000
vt 0.625000 1.000000
vt 0.500000 0.500000
vt 0.500000 1.000000
vt 0.375000 0.500000
vt 0.375000 1.000000
vt 0.250000 0.500000
vt 0.250000 1.000000
vt 0.125000 0.500000
vt 0.125000 1.000000
vt 0.000000 0.500000
vt 0.000000 1.000000
s 1
f 82/79/28 83/80/29 81/81/28
f 84/82/29 85/83/30 83/80/29
f 86/84/30 87/85/31 85/83/30
f 88/86/31 89/87/32 87/85/31
f 90/88/32 91/89/33 89/87/32
f 92/90/33 93/91/34 91/89/33
f 94/92/34 95/93/35 93/91/34
f 96/94/35 81/95/28 95/93/35
f 82/79/28 84/82/29 83/80/29
f 84/82/29 86/84/30 85/83/30
f 86/84/30 88/86/31 87/85/31
f 88/86/31 90/88/32 89/87/32
f 90/88/32 92/90/33 91/89/33
f 92/90/33 94/92/34 93/91/34
f 94/92/34 96/94/35 95/93/35
f 96/94/35 82/96/28 81/95/28
o Screws
v -0.750000 -0.050000 1.187500
v -0.750000 0.075000 1.187500
v -0.705806 -0.050000 1.205806
v -0.705806 0.075000 1.205806
v -0.687500 -0.050000 1.250000
v -0.687500 0.075000 1.250000
v -0.705806 -0.050000 1.294194
v -0.705806 0.075000 1.294194
v -0.750000 -0.050000 1.312500
v -0.750000 0.075000 1.312500
v -0.794194 -0.050000 1.294194
v -0.794194 0.075000 1.294194
v -0.812500 -0.050000 1.250000
v -0.812500 0.075000 1.250000
v -0.794194 -0.050000 1.205806
v -0.794194 0.075000 1.205806
v -0.750000 -0.050000 -1.187500
v -0.750000 0.075000 -1.187500
v -0.705806 -0.050000 -1.205806
v -0.705806 0.075000 -1.205806
v -0.687500 -0.050000 -1.250000
v -0.687500 0.075000 -1.250000
v -0.705806 -0.050000 -1.294194
v -0.705806 0.075000 -1.294194
v -0.750000 -0.050000 -1.312500
v -0.750000 0.075000 -1.312500
v -0.794194 -0.050000 -1.294194
v -0.794194 0.075000 -1.294194
v -0.812500 -0.050000 -1.250000
v -0.812500 0.075000 -1.250000
v -0.794194 -0.050000 -1.205806
v -0.794194 0.075000 -1.205806
vn 0.3827 -0.0000 -0.9239
vn 0.9239 -0.0000 -0.3827
vn 0.9239 -0.0000 0.3827
vn 0.3827 -0.0000 0.9239
vn -0.3827 -0.0000 0.9239
vn -0.9239 -0.0000 0.3827
vn -0.0000 1.0000 -0.0000
vn -0.9239 -0.0000 -0.3827
vn -0.3827 -0.0000 -0.9239
vt 1.000000 1.000000
vt 0.875000 0.500000
vt 1.000000 0.500000
vt 0.875000 1.000000
vt 0.750000 0.500000
vt 0.750000 1.000000
vt 0.625000 0.500000
vt 0.625000 1.000000
vt 0.500000 0.500000
vt 0.500000 1.000000
vt 0.375000 0.500000
vt 0.375000 1.000000
vt 0.250000 0.500000
vt 0.010000 0.250000
vt 0.250000 0.010000
vt 0.490000 0.250000
vt 0.250000 1.000000
vt 0.125000 0.500000
vt 0.125000 1.000000
vt 0.000000 0.500000
vt 0.250000 0.490000
vt 0.419706 0.419706
vt 0.080294 0.419706
vt 0.080294 0.080294
vt 0.419706 0.080294
vt 0.000000 1.000000
s 0
f 98/97/36 99/98/36 97/99/36
f 100/100/37 101/101/37 99/98/37
f 102/102/38 103/103/38 101/101/38
f 104/104/39 105/105/39 103/103/39
f 106/106/40 107/107/40 105/105/40
f 108/108/41 109/109/41 107/107/41
f 110/110/42 106/111/42 102/112/42
f 110/113/43 111/114/43 109/109/43
f 112/115/44 97/116/44 111/114/44
f 115/98/39 114/97/39 113/99/39
f 117/101/38 116/100/38 115/98/38
f 119/103/37 118/102/37 117/101/37
f 121/105/36 120/104/36 119/103/36
f 123/107/44 122/106/44 121/105/44
f 125/109/43 124/108/43 123/107/43
f 122/111/42 126/110/42 114/117/42
f 127/114/41 126/113/41 125/109/41
f 113/116/40 128/115/40 127/114/40
f 98/97/36 100/100/36 99/98/36
f 100/100/37 102/102/37 101/101/37
f 102/102/38 104/104/38 103/103/38
f 104/104/39 106/106/39 105/105/39
f 106/106/40 108/108/40 107/107/40
f 108/108/41 110/113/41 109/109/41
f 102/112/42 100/118/42 98/117/42
f 98/117/42 112/119/42 110/110/42
f 110/110/42 108/120/42 106/111/42
f 106/111/42 104/121/42 102/112/42
f 102/112/42 98/117/42 110/110/42
f 110/113/43 112/115/43 111/114/43
f 112/115/44 98/122/44 97/116/44
f 115/98/39 116/100/39 114/97/39
f 117/101/38 118/102/38 116/100/38
f 119/103/37 120/104/37 118/102/37
f 121/105/36 122/106/36 120/104/36
f 123/107/44 124/108/44 122/106/44
f 125/109/43 126/113/43 124/108/43
f 114/117/42 116/118/42 118/112/42
f 118/112/42 120/121/42 122/111/42
f 122/111/42 124/120/42 126/110/42
f 126/110/42 128/119/42 114/117/42
f 114/117/42 118/112/42 122/111/42
f 127/114/41 128/115/41 126/113/41
f 113/116/40 114/122/40 128/115/40
o ClipPlane
v -0.500000 0.062500 0.750000
v 0.500000 0.062500 0.750000
v -0.500000 0.062500 -0.750000
v 0.500000 0.062500 -0.750000
vn -0.0000 1.0000 -0.0000
vt 1.000000 0.000000
vt 0.000000 1.000000
vt 0.000000 0.000000
vt 1.000000 1.000000
s 0
f 130/123/45 131/124/45 129/125/45
f 130/123/45 132/126/45 131/124/45
