# Blender 4.3.2
# www.blender.org
o Plane
v -1.000000 0.000000 1.000000
v 1.000000 0.000000 1.000000
v -1.000000 0.000000 -1.000000
v 1.000000 0.000000 -1.000000
v -0.750000 0.250000 -0.750000
v -0.750000 0.250000 0.750000
v 0.750000 0.250000 0.750000
v 0.750000 0.250000 -0.750000
v -0.875000 0.250000 -0.875000
v -0.875000 0.250000 0.875000
v 0.875000 0.250000 0.875000
v 0.875000 0.250000 -0.875000
v -0.750000 0.062500 -0.750000
v -0.750000 0.062500 0.750000
v 0.750000 0.062500 0.750000
v 0.750000 0.062500 -0.750000
v -0.812500 0.250000 0.812500
v -0.812500 0.250000 -0.812500
v 0.812500 0.250000 0.812500
v 0.812500 0.250000 -0.812500
vn -0.0000 -0.0000 1.0000
vn -0.8944 0.4472 -0.0000
vn -0.0000 0.4472 -0.8944
vn -0.0000 0.4472 0.8944
vn 0.8944 0.4472 -0.0000
vn -0.0000 1.0000 -0.0000
vn -0.0000 -0.0000 -1.0000
vn -1.0000 -0.0000 -0.0000
vn 1.0000 -0.0000 -0.0000
vt 0.333333 0.333333
vt 0.000000 0.666667
vt 0.000000 0.333333
vt 0.333333 0.666667
vt 0.000000 1.000000
vt 0.333333 0.833333
vt 0.000000 0.833333
vt 0.333333 1.000000
s 0
f 5/1/1 16/2/1 8/3/1
f 1/4/2 9/5/2 3/2/2
f 3/4/3 12/5/3 4/2/3
f 2/4/4 10/5/4 1/2/4
f 4/4/5 11/5/5 2/2/5
f 18/6/6 10/5/6 17/7/6
f 17/6/6 11/5/6 19/7/6
f 19/6/6 12/5/6 20/7/6
f 20/6/6 9/5/6 18/7/6
f 7/1/7 14/2/7 6/3/7
f 8/1/8 15/2/8 7/3/8
f 6/1/9 13/2/9 5/3/9
f 8/1/6 18/2/6 5/3/6
f 7/1/6 20/2/6 8/3/6
f 6/1/6 19/2/6 7/3/6
f 5/1/6 17/2/6 6/3/6
f 5/1/1 13/4/1 16/2/1
f 1/4/2 10/8/2 9/5/2
f 3/4/3 9/8/3 12/5/3
f 2/4/4 11/8/4 10/5/4
f 4/4/5 12/8/5 11/5/5
f 18/6/6 9/8/6 10/5/6
f 17/6/6 10/8/6 11/5/6
f 19/6/6 11/8/6 12/5/6
f 20/6/6 12/8/6 9/5/6
f 7/1/7 15/4/7 14/2/7
f 8/1/8 16/4/8 15/2/8
f 6/1/9 14/4/9 13/2/9
f 8/1/6 20/4/6 18/2/6
f 7/1/6 19/4/6 20/2/6
f 6/1/6 17/4/6 19/2/6
f 5/1/6 18/4/6 17/2/6
o Plane.001
v -0.750000 0.125000 -0.750000
v -0.750000 0.125000 0.750000
v -0.437500 0.125000 0.750000
v -0.437500 0.125000 0.687500
v -0.687500 0.125000 -0.687500
v -0.687500 0.125000 0.687500
v -0.437500 0.125000 -0.750000
v -0.437500 0.125000 -0.687500
v 0.000000 0.125000 0.687500
v 0.000000 0.125000 -0.687500
v 0.000000 0.125000 0.750000
v 0.000000 0.125000 -0.750000
v -0.187500 0.125000 0.687500
v -0.187500 0.125000 -0.750000
v -0.187500 0.125000 0.750000
v -0.187500 0.125000 -0.687500
v -0.250000 0.125000 -0.750000
v -0.250000 0.125000 -0.687500
v -0.250000 0.125000 0.687500
v -0.250000 0.125000 0.750000
v -0.687500 0.062500 -0.687500
v -0.687500 0.062500 0.687500
v -0.437500 0.062500 -0.687500
v -0.437500 0.062500 0.687500
v -0.187500 0.062500 0.687500
v 0.000000 0.062500 0.687500
v -0.250000 0.062500 -0.687500
v 0.000000 0.062500 -0.687500
v -0.187500 0.062500 -0.687500
v -0.250000 0.062500 0.687500
v 0.750000 0.125000 -0.750000
v 0.750000 0.125000 0.750000
v 0.437500 0.125000 0.750000
v 0.437500 0.125000 0.687500
v 0.687500 0.125000 -0.687500
v 0.687500 0.125000 0.687500
v 0.437500 0.125000 -0.750000
v 0.437500 0.125000 -0.687500
v 0.187500 0.125000 0.687500
v 0.187500 0.125000 -0.750000
v 0.187500 0.125000 0.750000
v 0.187500 0.125000 -0.687500
v 0.250000 0.125000 -0.750000
v 0.250000 0.125000 -0.687500
v 0.250000 0.125000 0.687500
v 0.250000 0.125000 0.750000
v 0.687500 0.062500 -0.687500
v 0.687500 0.062500 0.687500
v 0.437500 0.062500 -0.687500
v 0.437500 0.062500 0.687500
v 0.187500 0.062500 0.687500
v 0.250000 0.062500 -0.687500
v 0.187500 0.062500 -0.687500
v 0.250000 0.062500 0.687500
vn -0.0000 1.0000 -0.0000
vn -0.0000 -0.0000 1.0000
vn 1.0000 -0.0000 -0.0000
vn -0.0000 -0.0000 -1.0000
vn -1.0000 -0.0000 -0.0000
vt 1.000000 0.666667
vt 0.666667 1.000000
vt 0.666667 0.666667
vt 1.000000 1.000000
vt 0.333333 1.000000
vt 0.333333 0.666667
s 0
f 25/9/10 22/10/10 26/11/10
f 26/9/10 23/10/10 24/11/10
f 24/9/10 40/10/10 39/11/10
f 25/11/10 27/12/10 21/10/10
f 30/9/10 34/10/10 36/11/10
f 25/9/11 43/10/11 28/11/11
f 33/9/12 49/10/12 36/11/12
f 33/9/10 38/10/10 39/11/10
f 36/9/10 37/10/10 38/11/10
f 33/9/10 31/10/10 29/11/10
f 38/9/10 27/10/10 28/11/10
f 29/9/13 45/10/13 33/11/13
f 39/9/10 35/10/10 33/11/10
f 46/11/10 49/13/10 45/14/10
f 50/11/10 43/13/10 44/14/10
f 38/9/14 50/10/14 39/11/14
f 39/9/13 44/10/13 24/11/13
f 24/9/13 42/10/13 26/11/13
f 26/9/12 41/10/12 25/11/12
f 28/9/11 47/10/11 38/11/11
f 36/9/11 48/10/11 30/11/11
f 52/10/10 55/9/10 56/11/10
f 53/10/10 56/9/10 54/11/10
f 66/10/10 54/9/10 65/11/10
f 55/11/10 57/12/10 58/9/10
f 60/10/10 30/9/10 62/11/10
f 69/10/11 55/9/11 58/11/11
f 73/10/14 59/9/14 62/11/14
f 64/10/10 59/9/10 65/11/10
f 63/10/10 62/9/10 64/11/10
f 31/10/10 59/9/10 29/11/10
f 57/10/10 64/9/10 58/11/10
f 71/10/13 29/9/13 59/11/13
f 61/10/10 65/9/10 59/11/10
f 73/13/10 46/11/10 71/14/10
f 69/13/10 74/11/10 70/14/10
f 74/10/12 64/9/12 65/11/12
f 70/10/13 65/9/13 54/11/13
f 68/10/13 54/9/13 56/11/13
f 67/10/14 56/9/14 55/11/14
f 72/10/11 58/9/11 64/11/11
f 48/10/11 62/9/11 30/11/11
f 25/9/10 21/12/10 22/10/10
f 26/9/10 22/12/10 23/10/10
f 24/9/10 23/12/10 40/10/10
f 25/11/10 28/9/10 27/12/10
f 30/9/10 32/12/10 34/10/10
f 25/9/11 41/12/11 43/10/11
f 33/9/12 45/12/12 49/10/12
f 33/9/10 36/12/10 38/10/10
f 36/9/10 34/12/10 37/10/10
f 33/9/10 35/12/10 31/10/10
f 38/9/10 37/12/10 27/10/10
f 29/9/13 46/12/13 45/10/13
f 39/9/10 40/12/10 35/10/10
f 46/11/10 48/10/10 49/13/10
f 50/11/10 47/10/10 43/13/10
f 38/9/14 47/12/14 50/10/14
f 39/9/13 50/12/13 44/10/13
f 24/9/13 44/12/13 42/10/13
f 26/9/12 42/12/12 41/10/12
f 28/9/11 43/12/11 47/10/11
f 36/9/11 49/12/11 48/10/11
f 52/10/10 51/12/10 55/9/10
f 53/10/10 52/12/10 56/9/10
f 66/10/10 53/12/10 54/9/10
f 55/11/10 51/10/10 57/12/10
f 60/10/10 32/12/10 30/9/10
f 69/10/11 67/12/11 55/9/11
f 73/10/14 71/12/14 59/9/14
f 64/10/10 62/12/10 59/9/10
f 63/10/10 60/12/10 62/9/10
f 31/10/10 61/12/10 59/9/10
f 57/10/10 63/12/10 64/9/10
f 71/10/13 46/12/13 29/9/13
f 61/10/10 66/12/10 65/9/10
f 73/13/10 48/10/10 46/11/10
f 69/13/10 72/10/10 74/11/10
f 74/10/12 72/12/12 64/9/12
f 70/10/13 74/12/13 65/9/13
f 68/10/13 70/12/13 54/9/13
f 67/10/14 68/12/14 56/9/14
f 72/10/11 69/12/11 58/9/11
f 48/10/11 73/12/11 62/9/11
o Plane.002
v -0.687500 0.062500 -0.687500
v -0.687500 0.062500 0.687500
v -0.437500 0.062500 -0.687500
v -0.437500 0.062500 0.687500
v -0.687500 0.062500 -0.412500
v -0.687500 0.062500 -0.137500
v -0.687500 0.062500 0.137500
v -0.687500 0.062500 0.412500
v -0.437500 0.062500 0.412500
v -0.437500 0.062500 0.137500
v -0.437500 0.062500 -0.137500
v -0.437500 0.062500 -0.412500
v 0.687500 0.062500 -0.687500
v 0.687500 0.062500 0.687500
v 0.437500 0.062500 -0.687500
v 0.437500 0.062500 0.687500
v 0.687500 0.062500 -0.412500
v 0.687500 0.062500 -0.137500
v 0.687500 0.062500 0.137500
v 0.687500 0.062500 0.412500
v 0.437500 0.062500 0.412500
v 0.437500 0.062500 0.137500
v 0.437500 0.062500 -0.137500
v 0.437500 0.062500 -0.412500
vn -0.0000 1.0000 -0.0000
vt 0.666667 0.666667
vt 1.000000 1.000000
vt 0.666667 1.000000
vt 0.333333 0.333333
vt 0.666667 0.333333
vt 0.333333 0.666667
vt 1.000000 0.666667
s 0
f 85/15/15 80/16/15 81/17/15
f 76/18/15 78/19/15 83/15/15
f 83/15/15 82/16/15 76/17/15
f 84/18/15 81/15/15 82/20/15
f 86/18/15 79/15/15 80/20/15
f 77/15/15 75/21/15 79/16/15
f 97/15/15 92/16/15 98/21/15
f 88/18/15 95/15/15 90/19/15
f 95/15/15 94/16/15 96/21/15
f 96/18/15 93/15/15 97/19/15
f 98/18/15 91/15/15 89/19/15
f 89/15/15 91/16/15 87/21/15
f 85/15/15 86/21/15 80/16/15
f 83/15/15 84/21/15 82/16/15
f 84/18/15 85/19/15 81/15/15
f 86/18/15 77/19/15 79/15/15
f 97/15/15 93/17/15 92/16/15
f 95/15/15 88/17/15 94/16/15
f 96/18/15 94/20/15 93/15/15
f 98/18/15 92/20/15 91/15/15
o Circle
v 0.000000 0.062500 -0.375000
v -0.187500 0.062500 -0.324760
v -0.324760 0.062500 -0.187500
v -0.375000 0.062500 -0.000000
v -0.324760 0.062500 0.187500
v -0.187500 0.062500 0.324760
v 0.000000 0.062500 0.375000
v 0.187500 0.062500 0.324760
v 0.324760 0.062500 0.187500
v 0.375000 0.062500 -0.000000
v 0.324760 0.062500 -0.187500
v 0.187500 0.062500 -0.324760
v 0.000000 0.125000 -0.310295
v -0.155148 0.125000 -0.268724
v -0.268724 0.125000 -0.155148
v -0.310295 0.125000 -0.000000
v -0.268724 0.125000 0.155148
v -0.155148 0.125000 0.268724
v 0.000000 0.125000 0.310295
v 0.155148 0.125000 0.268724
v 0.268724 0.125000 0.155148
v 0.310295 0.125000 -0.000000
v 0.268724 0.125000 -0.155148
v 0.155148 0.125000 -0.268724
v -0.187500 0.125000 -0.324760
v 0.000000 0.125000 -0.375000
v -0.324760 0.125000 -0.187500
v -0.375000 0.125000 -0.000000
v -0.324760 0.125000 0.187500
v -0.187500 0.125000 0.324760
v 0.000000 0.125000 0.375000
v 0.187500 0.125000 0.324760
v 0.324760 0.125000 0.187500
v 0.375000 0.125000 -0.000000
v 0.324760 0.125000 -0.187500
v 0.187500 0.125000 -0.324760
vn 0.7071 -0.0000 -0.7071
vn -0.2588 -0.0000 -0.9659
vn 0.7071 -0.0000 0.7071
vn -0.7071 -0.0000 0.7071
vn 0.2588 -0.0000 -0.9659
vn -0.7071 -0.0000 -0.7071
vn 0.9659 -0.0000 0.2588
vn -0.2588 -0.0000 0.9659
vn -0.9659 -0.0000 -0.2588
vn 0.9659 -0.0000 -0.2588
vn 0.2588 -0.0000 0.9659
vn -0.9659 -0.0000 0.2588
vn -0.0000 1.0000 -0.0000
vt 0.666667 1.000000
vt 1.000000 0.666667
vt 0.666667 0.666667
vt 1.000000 1.000000
s 0
f 134/22/16 109/23/16 110/24/16
f 123/22/17 99/23/17 100/24/17
f 131/22/18 106/23/18 107/24/18
f 128/22/19 103/23/19 104/24/19
f 124/22/20 110/23/20 99/24/20
f 125/22/21 100/23/21 101/24/21
f 132/22/22 107/23/22 108/24/22
f 129/22/23 104/23/23 105/24/23
f 126/22/24 101/23/24 102/24/24
f 133/22/25 108/23/25 109/24/25
f 130/22/26 105/23/26 106/24/26
f 127/22/27 102/23/27 103/24/27
f 124/22/28 112/23/28 111/24/28
f 123/22/28 113/23/28 112/24/28
f 125/22/28 114/23/28 113/24/28
f 126/22/28 115/23/28 114/24/28
f 127/22/28 116/23/28 115/24/28
f 128/22/28 117/23/28 116/24/28
f 129/22/28 118/23/28 117/24/28
f 130/22/28 119/23/28 118/24/28
f 131/22/28 120/23/28 119/24/28
f 132/22/28 121/23/28 120/24/28
f 133/22/28 122/23/28 121/24/28
f 134/22/28 111/23/28 122/24/28
f 134/22/16 133/25/16 109/23/16
f 123/22/17 124/25/17 99/23/17
f 131/22/18 130/25/18 106/23/18
f 128/22/19 127/25/19 103/23/19
f 124/22/20 134/25/20 110/23/20
f 125/22/21 123/25/21 100/23/21
f 132/22/22 131/25/22 107/23/22
f 129/22/23 128/25/23 104/23/23
f 126/22/24 125/25/24 101/23/24
f 133/22/25 132/25/25 108/23/25
f 130/22/26 129/25/26 105/23/26
f 127/22/27 126/25/27 102/23/27
f 124/22/28 123/25/28 112/23/28
f 123/22/28 125/25/28 113/23/28
f 125/22/28 126/25/28 114/23/28
f 126/22/28 127/25/28 115/23/28
f 127/22/28 128/25/28 116/23/28
f 128/22/28 129/25/28 117/23/28
f 129/22/28 130/25/28 118/23/28
f 130/22/28 131/25/28 119/23/28
f 131/22/28 132/25/28 120/23/28
f 132/22/28 133/25/28 121/23/28
f 133/22/28 134/25/28 122/23/28
f 134/22/28 124/25/28 111/23/28
o Circle.001
v 0.000000 0.125000 -0.310295
v -0.155148 0.125000 -0.268724
v -0.268724 0.125000 -0.155148
v -0.310295 0.125000 -0.000000
v -0.268724 0.125000 0.155148
v -0.155148 0.125000 0.268724
v 0.000000 0.125000 0.310295
v 0.155148 0.125000 0.268724
v 0.268724 0.125000 0.155148
v 0.310295 0.125000 -0.000000
v 0.268724 0.125000 -0.155148
v 0.155148 0.125000 -0.268724
v -0.155148 0.312500 -0.268724
v 0.000000 0.312500 -0.310295
v -0.268724 0.312500 -0.155148
v -0.310295 0.312500 -0.000000
v -0.268724 0.312500 0.155148
v -0.155148 0.312500 0.268724
v 0.000000 0.312500 0.310295
v 0.155148 0.312500 0.268724
v 0.268724 0.312500 0.155148
v 0.310295 0.312500 -0.000000
v 0.268724 0.312500 -0.155148
v 0.155148 0.312500 -0.268724
vn -0.0000 1.0000 -0.0000
vn 0.7071 -0.0000 0.7071
vn -0.7071 -0.0000 0.7071
vn 0.2588 -0.0000 -0.9659
vn -0.7071 -0.0000 -0.7071
vn 0.9659 -0.0000 0.2588
vn -0.2588 -0.0000 0.9659
vn -0.9659 -0.0000 -0.2588
vn 0.9659 -0.0000 -0.2588
vn 0.2588 -0.0000 0.9659
vn -0.9659 -0.0000 0.2588
vn 0.7071 -0.0000 -0.7071
vn -0.2588 -0.0000 -0.9659
vt 0.666667 0.333333
vt 1.000000 0.666667
vt 1.000000 0.333333
vt 0.666667 0.666667
s 0
f 157/26/29 149/27/29 153/28/29
f 155/29/30 142/28/30 143/26/30
f 152/29/31 139/28/31 140/26/31
f 148/29/32 146/28/32 135/26/32
f 149/29/33 136/28/33 137/26/33
f 156/29/34 143/28/34 144/26/34
f 153/29/35 140/28/35 141/26/35
f 150/29/36 137/28/36 138/26/36
f 157/29/37 144/28/37 145/26/37
f 154/29/38 141/28/38 142/26/38
f 151/29/39 138/28/39 139/26/39
f 158/29/40 145/28/40 146/26/40
f 147/29/41 135/28/41 136/26/41
f 149/26/29 148/27/29 147/28/29
f 148/26/29 157/27/29 158/28/29
f 157/26/29 155/27/29 156/28/29
f 155/26/29 157/27/29 154/28/29
f 154/26/29 157/27/29 153/28/29
f 153/26/29 149/27/29 152/28/29
f 152/26/29 149/27/29 151/28/29
f 151/26/29 149/27/29 150/28/29
f 149/26/29 157/27/29 148/28/29
f 155/29/30 154/27/30 142/28/30
f 152/29/31 151/27/31 139/28/31
f 148/29/32 158/27/32 146/28/32
f 149/29/33 147/27/33 136/28/33
f 156/29/34 155/27/34 143/28/34
f 153/29/35 152/27/35 140/28/35
f 150/29/36 149/27/36 137/28/36
f 157/29/37 156/27/37 144/28/37
f 154/29/38 153/27/38 141/28/38
f 151/29/39 150/27/39 138/28/39
f 158/29/40 157/27/40 145/28/40
f 147/29/41 148/27/41 135/28/41
