# Blender 4.3.2
# www.blender.org
o Plane
v -3.500000 0.000000 -1.500000
v -3.500000 0.000000 1.500000
v 3.500000 0.000000 -1.500000
v 3.500000 0.000000 1.500000
v 3.375000 0.125000 -1.375000
v -3.375000 0.125000 -1.375000
v -3.375000 0.125000 1.375000
v 3.375000 0.125000 1.375000
v 3.500000 0.125000 -1.500000
v -3.500000 0.125000 -1.500000
v -3.500000 0.125000 1.500000
v 3.500000 0.125000 1.500000
v 3.312500 0.375000 -1.312500
v -3.312500 0.375000 -1.312500
v -3.312500 0.375000 1.312500
v 3.312500 0.375000 1.312500
v 3.375000 0.375000 -1.375000
v -3.375000 0.375000 -1.375000
v -3.375000 0.375000 1.375000
v 3.375000 0.375000 1.375000
vn 1.0000 -0.0000 -0.0000
vn -0.0000 -0.0000 -1.0000
vn -1.0000 -0.0000 -0.0000
vn -0.0000 -0.0000 1.0000
vn -0.0000 1.0000 -0.0000
vt 0.041667 0.982143
vt 0.958333 0.982143
vt 0.000000 0.000000
vt 0.000000 1.000000
vt 1.000000 1.000000
vt 1.000000 0.000000
vt 0.041667 0.017857
vt 0.958333 0.017857
vt 0.062500 0.973214
vt 0.062500 0.026786
vt 0.937500 0.026786
vt 0.937500 0.973214
s 0
f 5/1/1 20/2/1 8/2/1
f 1/3/2 9/4/2 3/4/2
f 3/4/1 12/5/1 4/5/1
f 2/6/3 10/3/3 1/3/3
f 4/5/4 11/6/4 2/6/4
f 5/1/5 10/3/5 6/7/5
f 6/7/5 11/6/5 7/8/5
f 7/8/5 12/5/5 8/2/5
f 8/2/5 9/4/5 5/1/5
f 7/8/3 18/7/3 6/7/3
f 8/2/4 19/8/4 7/8/4
f 6/7/2 17/1/2 5/1/2
f 13/9/5 18/7/5 14/10/5
f 14/10/5 19/8/5 15/11/5
f 15/11/5 20/2/5 16/12/5
f 16/12/5 17/1/5 13/9/5
f 5/1/1 17/1/1 20/2/1
f 1/3/2 10/3/2 9/4/2
f 3/4/1 9/4/1 12/5/1
f 2/6/3 11/6/3 10/3/3
f 4/5/4 12/5/4 11/6/4
f 5/1/5 9/4/5 10/3/5
f 6/7/5 10/3/5 11/6/5
f 7/8/5 11/6/5 12/5/5
f 8/2/5 12/5/5 9/4/5
f 7/8/3 19/8/3 18/7/3
f 8/2/4 20/2/4 19/8/4
f 6/7/2 18/7/2 17/1/2
f 13/9/5 17/1/5 18/7/5
f 14/10/5 18/7/5 19/8/5
f 15/11/5 19/8/5 20/2/5
f 16/12/5 20/2/5 17/1/5
o Plane.001
v 3.312500 0.375000 -1.312500
v -3.312500 0.375000 -1.312500
v -3.312500 0.375000 1.312500
v 3.312500 0.375000 1.312500
vn -0.0000 1.0000 -0.0000
vt 0.000000 0.000000
vt 1.000000 1.000000
vt 0.000000 1.000000
vt 1.000000 0.000000
s 0
f 23/13/6 21/14/6 22/15/6
f 23/13/6 24/16/6 21/14/6
